<svg class="settings-icon fracgui-cancel" xmlns="http://www.w3.org/2000/svg" fill="none" viewBox="0 0 26 26">
    <path
        class="gear"
        stroke="currentColor"
        stroke-linecap="round"
        stroke-linejoin="round"
        stroke-width="2"
        d="M4 4.7c.2-.2.5-.3.7-.3l2.7.2h.4l.3-.1.2-.4 1.1-2.3.6-.5a13 13 0 0 1 6 0l.6.5 1.1 2.3.2.4.3.1h.4l2.7-.2c.2 0 .5.1.7.3 1.4 1.4 2.4 3 3 5 0 .2 0 .5-.2.7l-1.4 2-.3.5v.2l.3.4 1.4 2.1c.2.2.2.5.2.8-.6 1.8-1.6 3.5-3 4.9a1 1 0 0 1-.7.3l-2.7-.2h-.4l-.3.1-.2.4-1.1 2.3a1 1 0 0 1-.6.5 13 13 0 0 1-6 0 1 1 0 0 1-.6-.5l-1.1-2.3-.2-.4-.3-.1h-.4l-2.7.2a1 1 0 0 1-.7-.3c-1.4-1.4-2.4-3-3-5 0-.2 0-.5.2-.7l1.4-2L3 13l-.3-.4-1.4-2.1a.9.9 0 0 1-.2-.8c.6-1.8 1.6-3.5 3-4.9Z"
    />
    <circle
        fill="currentColor"
        class="dot-right"
        cx="22"
        cy="13"
        r="3"
    />
    <circle
        class="dot-left"
        fill="currentColor"
        cx="4"
        cy="13"
        r="3"
    />
    <circle
        class="dot-center"
        fill="currentColor"
        cx="13"
        cy="13"
        r="3"
    />
</svg>
